<svg width="56" height="24" viewBox="0 0 56 24" fill="none" xmlns="http://www.w3.org/2000/svg">
<path fill-rule="evenodd" clip-rule="evenodd" d="M44.3067 23.6644H11.6642C5.2228 23.6644 0 18.4416 0 12.0002C0 5.55874 5.2228 0.335938 11.6642 0.335938H44.3358C50.7772 0.335938 56 5.55874 56 12.0002C56 18.4416 50.7482 23.6644 44.3067 23.6644Z" fill="#FFEB00"/>
<path fill-rule="evenodd" clip-rule="evenodd" d="M13.0858 5.9375C9.57497 5.9375 6.73145 8.1717 6.73145 10.9572C6.73145 12.7271 7.92108 14.294 9.69103 15.1935L9.0817 17.4567C9.05269 17.5147 9.0817 17.6018 9.13974 17.6598C9.16875 17.6888 9.22678 17.7178 9.2558 17.7178C9.28481 17.7178 9.34284 17.6888 9.37186 17.6888L11.9542 15.9479C12.3314 16.0059 12.7086 16.0349 13.1149 16.0349C16.6257 16.0349 19.4693 13.7717 19.4693 11.0152C19.4693 8.1717 16.6257 5.9375 13.0858 5.9375Z" fill="black"/>
<path d="M24.8369 15.1354V18.3852H22.5156V6.40176H24.1405L24.4307 7.15617C24.9239 6.6629 25.6783 6.14062 26.868 6.14062C29.1312 6.14062 30.2047 7.82353 30.2047 10.58C30.2047 13.4525 28.5509 15.2805 26.1716 15.2805C25.7073 15.3095 25.3591 15.2805 24.8369 15.1354ZM24.8369 8.34581V13.5106C24.9529 13.5396 25.2721 13.5686 25.5913 13.5686C27.2452 13.5686 27.8835 12.408 27.8835 10.58C27.8835 8.98415 27.4483 8.02664 26.1426 8.02664C25.6783 8.02664 25.2141 8.1427 24.8369 8.34581Z" fill="black"/>
<path d="M35.2249 9.79324H36.5306V9.50308C36.5306 8.54557 35.9793 8.11034 35.0508 8.11034C34.3254 8.11034 33.4259 8.31345 32.6715 8.69065L32.0332 7.15283C32.8456 6.57251 34.1223 6.19531 35.2539 6.19531C37.4591 6.19531 38.6777 7.35593 38.6777 9.59013V15.0741H37.0529L36.8207 14.3487C35.8922 15.016 35.0218 15.3062 34.2674 15.3062C32.5845 15.3062 31.627 14.2907 31.627 12.5787C31.627 10.7508 32.8746 9.79324 35.2249 9.79324ZM36.5596 12.8399V11.244H35.486C34.2964 11.244 33.6871 11.6793 33.6871 12.5207C33.6871 13.159 34.0062 13.4782 34.7026 13.4782C35.3409 13.5072 36.1534 13.1881 36.5596 12.8399Z" fill="black"/>
<path d="M45.6999 14.1774C44.8874 16.3245 43.9299 17.8914 42.5082 18.7618L41.0864 17.4561C41.8988 16.7307 42.5082 16.0344 43.0014 15.1059L39.9258 6.72037L42.218 6.11105L44.1911 12.9007L46.1351 6.08203L48.3983 6.72037L45.6999 14.1774Z" fill="black"/>
</svg>
