<svg width="86" height="24" viewBox="0 0 86 24" fill="none" xmlns="http://www.w3.org/2000/svg">
<path fill-rule="evenodd" clip-rule="evenodd" d="M1.58984 21.3603H84.4046V2.63672L1.58984 2.63672V21.3603Z" fill="white"/>
<path fill-rule="evenodd" clip-rule="evenodd" d="M84.6196 0.984375H1.38018C0.621082 0.984375 0 1.62866 0 2.41612V21.581C0 22.3677 0.621082 23.0119 1.38018 23.0119H84.6196C85.3787 23.0119 85.9998 22.3677 85.9998 21.581V2.41612C85.9998 1.62866 85.3787 0.984375 84.6196 0.984375ZM56.3163 21.3597V2.63611H1.58984V21.3597H56.3163Z" fill="#00C73C"/>
<path fill-rule="evenodd" clip-rule="evenodd" d="M13.0053 7.77344V12.0694L10.1668 7.77344H7.10156V16.2923H10.1577V11.9924L12.9946 16.2923H16.0614V7.77344H13.0053Z" fill="#00C73C"/>
<path fill-rule="evenodd" clip-rule="evenodd" d="M47.358 11.3695C47.1798 11.5197 46.837 11.5937 46.5526 11.5937H45.8959V9.9149H46.5397C46.8484 9.9149 47.2003 9.99278 47.3709 10.1446C47.54 10.2988 47.6204 10.5057 47.6204 10.77C47.6204 11.0217 47.5362 11.2223 47.358 11.3695M47.8199 16.2915H51.3326L48.8611 13.1055C49.9471 12.7908 50.6478 11.9774 50.6478 10.6715C50.6478 8.47751 48.9696 7.77344 46.7575 7.77344H42.9385V16.2915H45.9954V13.631L47.8199 16.2915" fill="#00C73C"/>
<path fill-rule="evenodd" clip-rule="evenodd" d="M35.4883 7.77344H41.6847V9.99106H38.5148V10.9933H41.4352V13.0882H38.5148V14.0739H41.781V16.2923H35.4883V7.77344Z" fill="#00C73C"/>
<path fill-rule="evenodd" clip-rule="evenodd" d="M20.9117 13.2083L21.6299 10.3984H21.7148L22.4337 13.2083H20.9117ZM23.4183 7.77344H19.9329L16.7168 16.2915H20.1164L20.4137 15.1784H22.939L23.2363 16.2915H26.6351L23.4183 7.77344Z" fill="#00C73C"/>
<path fill-rule="evenodd" clip-rule="evenodd" d="M31.4983 7.77344L29.9915 12.908H29.9066L28.4013 7.77344H25.0684L28.5059 16.2923H31.3922L34.832 7.77344H31.4983Z" fill="#00C73C"/>
<path fill-rule="evenodd" clip-rule="evenodd" d="M61.5762 6.92188H64.7968C65.3042 6.92188 65.7455 6.98874 66.1194 7.12248C66.4948 7.257 66.8049 7.44265 67.0499 7.68023C67.2948 7.91859 67.4783 8.20179 67.5997 8.53062C67.7203 8.85944 67.7802 9.21423 67.7802 9.5942V9.86717C67.7802 10.2479 67.7157 10.6043 67.5868 10.9378C67.4579 11.2706 67.2683 11.5624 67.0195 11.8134C66.7701 12.0643 66.4599 12.2634 66.0891 12.4105C65.7198 12.5576 65.289 12.6307 64.7984 12.6307H62.8145V16.277H61.5762V6.92188ZM62.8136 8.03665V11.5145H64.5896C65.891 11.5145 66.5409 10.956 66.5409 9.84048V9.60684C66.5409 9.07033 66.3846 8.67464 66.0722 8.41975C65.7598 8.16487 65.3108 8.03665 64.7269 8.03665H62.8136Z" fill="white"/>
<path fill-rule="evenodd" clip-rule="evenodd" d="M70.6905 16.9278C69.9974 16.9278 69.4498 16.7508 69.0456 16.3961C68.6407 16.0413 68.439 15.5527 68.439 14.9297V14.5788C68.439 13.9739 68.6346 13.4806 69.0267 13.0999C69.4187 12.7192 70.0527 12.5288 70.9278 12.5288H72.6667V12.1142C72.6667 11.6383 72.556 11.2851 72.3353 11.0561C72.1139 10.8272 71.7537 10.7124 71.2532 10.7124C70.8528 10.7124 70.5039 10.7769 70.2089 10.9067C69.9124 11.0365 69.6061 11.2103 69.2891 11.4259L68.6892 10.4921C69.0221 10.2498 69.3968 10.0398 69.8146 9.86275C70.2317 9.68496 70.7155 9.59607 71.2653 9.59607C71.649 9.59607 71.9986 9.64642 72.3164 9.74554C72.6326 9.84544 72.9056 9.99176 73.1354 10.1869C73.3644 10.3812 73.5434 10.6195 73.673 10.9004C73.8027 11.182 73.8672 11.4998 73.8672 11.8546V16.824H72.7039V15.9673H72.691C72.6243 16.0979 72.5348 16.2159 72.4225 16.3245C72.3095 16.4322 72.1867 16.5259 72.0532 16.6037C71.8697 16.7068 71.6718 16.787 71.4594 16.8437C71.2463 16.8995 70.99 16.9278 70.6905 16.9278ZM72.6663 13.5938H70.9524C70.4769 13.5938 70.1372 13.689 69.9332 13.8794C69.7285 14.0697 69.6261 14.3333 69.6261 14.6708V14.8525C69.6261 15.1986 69.7436 15.4496 69.9764 15.6053C70.21 15.7603 70.4898 15.839 70.8152 15.839C71.1147 15.839 71.3756 15.802 71.5963 15.728C71.8177 15.6549 72.0194 15.5448 72.2037 15.3969C72.3698 15.2671 72.4888 15.1184 72.5594 14.95C72.6306 14.7809 72.6663 14.5622 72.6663 14.2947V13.5938Z" fill="white"/>
<path d="M80.1621 9.17871L78.361 14.849H78.311L76.497 9.17871H75.1843L77.6732 16.3799L76.7852 18.8068L77.8855 19.2088L81.4384 9.17871H80.1621Z" fill="white"/>
</svg>
