<svg width="52" height="52" viewBox="0 0 52 52" fill="none" xmlns="http://www.w3.org/2000/svg">
<g clip-path="url(#clip0_4633_135226)">
<rect width="52.0006" height="52.0006" rx="26.0003" fill="black"/>
<path fill-rule="evenodd" clip-rule="evenodd" d="M29.2137 15.4014C28.4797 16.315 27.2471 17.0002 26.2637 17.0002C26.1529 17.0002 26.0421 16.9859 25.9729 16.9716C25.959 16.9145 25.9313 16.7432 25.9313 16.5719C25.9313 15.4014 26.4992 14.2594 27.1224 13.5313C27.9118 12.5749 29.2275 11.8611 30.3217 11.8183C30.3494 11.9468 30.3632 12.1038 30.3632 12.2608C30.3632 13.4171 29.8785 14.5734 29.2137 15.4014ZM24.397 33.8476C23.9034 34.0661 23.4357 34.2731 22.8011 34.2731C21.4438 34.2731 20.502 32.9884 19.4218 31.4181C18.1615 29.5623 17.1366 26.693 17.1366 23.9807C17.1366 19.6125 19.8927 17.3 22.6072 17.3C23.3995 17.3 24.1234 17.5994 24.7671 17.8657C25.2824 18.0788 25.7463 18.2707 26.1527 18.2707C26.5052 18.2707 26.9445 18.0917 27.4565 17.8832C28.1716 17.5919 29.0286 17.2429 29.989 17.2429C30.5984 17.2429 32.8282 17.3 34.2963 19.4698C34.2878 19.4765 34.2699 19.4887 34.2437 19.5065C33.8825 19.7523 31.9557 21.0634 31.9557 23.7523C31.9557 27.0784 34.7671 28.2633 34.8641 28.2918C34.8616 28.2982 34.8559 28.3165 34.8467 28.3456C34.7543 28.6405 34.3137 30.046 33.3683 31.4752C32.4404 32.8456 31.4571 34.2446 29.989 34.2446C29.2655 34.2446 28.8044 34.0341 28.3284 33.8168C27.8203 33.5849 27.2953 33.3452 26.4158 33.3452C25.5317 33.3452 24.9482 33.6035 24.397 33.8476Z" fill="white"/>
</g>
<defs>
<clipPath id="clip0_4633_135226">
<rect width="52.0006" height="52.0006" fill="white"/>
</clipPath>
</defs>
</svg>
